P3
16 16 255
25 4 4
24 3 3
23 2 2
23 2 2
22 1 1
22 1 1
22 0 0
21 0 0
21 0 0
21 0 0
21 0 0
21 0 0
21 0 0
21 0 0
21 0 0
21 0 0
24 3 3
23 2 2
23 1 1
22 1 1
22 1 1
21 0 0
21 0 0
21 0 0
21 0 0
21 0 0
21 0 0
21 0 0
21 0 0
21 0 0
21 0 0
21 0 0
23 2 2
22 1 1
197 108 8
22 1 1
21 0 0
21 0 0
21 0 0
255 15 251
171 22 142
21 0 0
21 0 0
21 0 0
21 0 0
255 142 255
21 0 0
21 0 0
22 1 1
131 166 5
255 255 155
127 160 8
21 0 0
21 0 0
21 0 0
21 0 0
27 24 44
21 0 0
21 0 0
21 0 0
255 33 255
255 162 255
113 13 126
21 0 0
22 1 1
29 103 118
168 210 30
163 181 53
21 0 0
21 0 0
21 0 0
21 0 0
21 0 0
21 0 0
21 0 0
21 0 0
40 15 58
88 2 89
21 0 0
21 0 0
255 255 238
23 0 0
93 97 0
74 58 0
26 0 1
250 255 224
250 2 223
21 0 0
21 0 0
220 255 6
231 255 11
213 130 4
255 169 0
21 0 0
21 0 0
21 0 0
255 255 233
255 10 231
255 255 229
255 7 228
253 5 226
252 255 226
251 3 224
251 255 223
194 255 9
235 255 39
255 255 77
255 255 105
255 255 43
255 186 7
21 0 0
21 0 0
255 255 235
255 12 233
255 255 231
255 255 229
255 7 228
254 6 227
255 2 255
255 2 255
148 134 254
133 204 2
233 255 48
255 255 102
255 255 188
255 255 108
75 118 0
21 0 0
255 9 255
255 8 255
255 255 255
255 6 255
255 5 255
255 4 255
255 3 255
255 2 255
17 3 69
136 207 1
13 39 0
8 255 255
30 255 255
13 255 255
233 255 67
0 147 147
255 255 255
255 255 255
255 8 255
255 7 255
255 255 255
255 5 255
255 4 255
255 3 255
131 2 125
56 0 0
1 206 218
0 25 28
1 202 209
93 255 255
13 233 233
0 152 152
21 0 0
255 255 255
255 255 255
255 8 255
255 7 255
255 6 255
255 255 255
255 4 255
255 3 255
155 195 153
0 212 225
255 247 248
0 205 213
56 255 255
3 161 162
0 125 126
21 0 0
185 0 177
255 12 255
255 10 255
255 9 255
255 255 255
255 255 255
255 5 255
255 4 255
255 3 255
255 255 255
1 83 83
0 2 2
0 139 144
0 120 127
0 78 86
21 0 0
21 0 0
185 226 177
255 255 255
255 255 255
255 9 255
255 7 255
255 255 255
255 255 255
255 255 255
255 3 255
0 222 239
0 219 230
0 84 101
0 49 74
3 0 0
21 0 0
21 0 0
21 0 0
255 255 255
255 255 255
255 255 255
255 255 255
255 7 255
255 6 255
255 255 255
255 255 255
255 3 255
255 2 255
154 0 153
154 0 154
155 198 156
21 0 0
21 0 0
21 0 0
185 0 177
255 255 255
255 255 255
255 10 255
255 255 255
255 7 255
255 6 255
255 255 255
255 255 255
255 255 255
255 255 255
255 2 255
255 1 255
21 0 0
21 0 0
21 0 0
21 0 0
185 0 177
255 255 255
255 255 255
255 10 255
255 255 255
255 7 255
255 6 255
255 255 255
255 255 255
255 255 255
255 2 255
83 105 83
