P3
004 004 255
025 004 004
022 001 001
021 000 000
021 000 000
022 001 001
021 000 000
021 000 000
040 015 058
255 009 255
255 005 255
017 003 069
030 255 255
021 000 000
255 255 255
255 255 255
000 219 230
