P3
064 064 255
025 004 004
025 003 003
024 003 003
024 003 003
024 003 003
024 003 003
024 003 003
023 002 002
023 002 002
023 002 002
023 002 002
023 002 002
023 002 002
023 001 001
022 001 001
022 001 001
022 001 001
022 001 001
022 001 001
022 001 001
022 001 001
022 001 001
022 001 001
022 001 001
022 000 000
021 000 000
021 000 000
021 000 000
021 000 000
021 000 000
021 000 000
021 000 000
021 000 000
021 000 000
021 000 000
021 000 000
021 000 000
021 000 000
021 000 000
021 000 000
021 000 000
021 000 000
021 000 000
021 000 000
021 000 000
021 000 000
021 000 000
021 000 000
021 000 000
021 000 000
021 000 000
021 000 000
021 000 000
021 000 000
021 000 000
021 000 000
021 000 000
021 000 000
021 000 000
021 000 000
021 000 000
021 000 000
021 000 000
021 000 000
025 003 003
024 003 003
024 003 003
024 003 003
024 003 003
024 002 002
023 002 002
023 002 002
023 002 002
023 002 002
023 002 002
023 002 002
023 001 001
022 001 001
022 001 001
022 001 001
022 001 001
022 001 001
022 001 001
022 001 001
022 001 001
022 001 001
022 000 000
022 000 000
021 000 000
021 000 000
021 000 000
021 000 000
021 000 000
021 000 000
021 000 000
021 000 000
021 000 000
021 000 000
021 000 000
021 000 000
021 000 000
021 000 000
021 000 000
021 000 000
021 000 000
021 000 000
021 000 000
021 000 000
021 000 000
021 000 000
021 000 000
021 000 000
021 000 000
021 000 000
021 000 000
021 000 000
021 000 000
021 000 000
021 000 000
021 000 000
021 000 000
021 000 000
021 000 000
021 000 000
021 000 000
021 000 000
021 000 000
021 000 000
024 003 003
024 003 003
024 003 003
024 003 003
024 002 002
023 002 002
023 002 002
023 002 002
023 002 002
023 002 002
023 002 002
022 001 001
022 001 001
022 001 001
022 001 001
022 001 001
022 001 001
022 001 001
022 001 001
022 001 001
022 001 001
022 000 000
021 000 000
021 000 000
021 000 000
021 000 000
021 000 000
021 000 000
021 000 000
021 000 000
021 000 000
021 000 000
021 000 000
021 000 000
021 000 000
021 000 000
021 000 000
021 000 000
021 000 000
021 000 000
021 000 000
021 000 000
021 000 000
021 000 000
021 000 000
021 000 000
021 000 000
021 000 000
021 000 000
021 000 000
021 000 000
021 000 000
021 000 000
021 000 000
021 000 000
021 000 000
021 000 000
021 000 000
021 000 000
021 000 000
021 000 000
021 000 000
021 000 000
021 000 000
024 003 003
024 003 003
024 003 003
023 002 002
023 002 002
023 002 002
023 002 002
023 002 002
023 002 002
023 002 002
022 001 001
022 001 001
022 001 001
022 001 001
022 001 001
022 001 001
022 001 001
022 001 001
022 001 001
022 001 001
022 000 000
021 000 000
021 000 000
021 000 000
021 000 000
021 000 000
021 000 000
021 000 000
021 000 000
021 000 000
021 000 000
021 000 000
021 000 000
021 000 000
021 000 000
021 000 000
021 000 000
021 000 000
021 000 000
021 000 000
021 000 000
021 000 000
021 000 000
021 000 000
021 000 000
021 000 000
021 000 000
021 000 000
021 000 000
021 000 000
021 000 000
021 000 000
021 000 000
021 000 000
021 000 000
021 000 000
021 000 000
021 000 000
021 000 000
021 000 000
021 000 000
021 000 000
021 000 000
021 000 000
024 003 003
024 003 003
023 002 002
023 002 002
023 002 002
023 002 002
023 002 002
023 002 002
023 001 001
022 001 001
022 001 001
022 001 001
022 001 001
022 001 001
022 001 001
022 001 001
022 001 001
022 001 001
022 001 001
022 000 000
021 000 000
021 000 000
021 000 000
021 000 000
021 000 000
021 000 000
021 000 000
021 000 000
021 000 000
021 000 000
021 000 000
021 000 000
021 000 000
021 000 000
021 000 000
021 000 000
021 000 000
021 000 000
021 000 000
021 000 000
021 000 000
021 000 000
021 000 000
021 000 000
021 000 000
021 000 000
021 000 000
021 000 000
021 000 000
021 000 000
021 000 000
021 000 000
021 000 000
021 000 000
021 000 000
021 000 000
021 000 000
021 000 000
021 000 000
021 000 000
021 000 000
021 000 000
021 000 000
021 000 000
024 003 003
023 002 002
023 002 002
023 002 002
023 002 002
023 002 002
023 002 002
023 001 001
022 001 001
022 001 001
022 001 001
022 001 001
022 001 001
022 001 001
022 001 001
022 001 001
022 001 001
022 001 001
022 000 000
021 000 000
021 000 000
021 000 000
021 000 000
021 000 000
021 000 000
021 000 000
021 000 000
021 000 000
021 000 000
021 000 000
255 060 255
255 094 255
250 066 255
204 029 201
021 000 000
021 000 000
021 000 000
021 000 000
021 000 000
021 000 000
021 000 000
021 000 000
021 000 000
021 000 000
021 000 000
021 000 000
021 000 000
021 000 000
021 000 000
021 000 000
021 000 000
021 000 000
021 000 000
021 000 000
021 000 000
021 000 000
021 000 000
021 000 000
021 000 000
021 000 000
021 000 000
021 000 000
021 000 000
021 000 000
023 002 002
023 002 002
023 002 002
023 002 002
023 002 002
023 002 002
023 001 001
022 001 001
022 001 001
022 001 001
022 001 001
022 001 001
022 001 001
022 001 001
022 001 001
022 001 001
022 001 001
022 000 000
021 000 000
021 000 000
021 000 000
021 000 000
021 000 000
021 000 000
021 000 000
021 000 000
021 000 000
021 000 000
021 000 000
249 203 255
255 233 255
255 177 255
215 105 255
144 068 179
084 053 109
021 000 000
021 000 000
021 000 000
021 000 000
021 000 000
021 000 000
021 000 000
021 000 000
021 000 000
021 000 000
021 000 000
021 000 000
021 000 000
021 000 000
021 000 000
021 000 000
021 000 000
021 000 000
021 000 000
021 000 000
021 000 000
021 000 000
021 000 000
021 000 000
021 000 000
021 000 000
021 000 000
021 000 000
021 000 000
023 002 002
023 002 002
023 002 002
023 002 002
023 002 002
022 001 001
022 001 001
022 001 001
022 001 001
022 001 001
022 001 001
022 001 001
022 001 001
022 001 001
022 001 001
022 000 000
022 000 000
021 000 000
021 000 000
021 000 000
021 000 000
021 000 000
021 000 000
021 000 000
021 000 000
021 000 000
021 000 000
021 000 000
097 211 255
142 255 255
137 255 255
100 255 255
060 206 212
033 123 129
031 085 094
032 015 023
021 000 000
021 000 000
021 000 000
021 000 000
021 000 000
021 000 000
021 000 000
021 000 000
021 000 000
021 000 000
021 000 000
021 000 000
021 000 000
021 000 000
021 000 000
021 000 000
021 000 000
021 000 000
021 000 000
021 000 000
021 000 000
021 000 000
021 000 000
021 000 000
021 000 000
021 000 000
021 000 000
021 000 000
023 002 002
023 002 002
023 002 002
023 002 002
022 001 001
022 001 001
198 111 008
197 110 008
197 108 008
255 173 028
232 126 006
022 001 001
022 001 001
022 001 001
022 000 000
021 000 000
021 000 000
021 000 000
021 000 000
021 000 000
021 000 000
021 000 000
021 000 000
021 000 000
021 000 000
021 000 000
021 000 000
021 000 000
255 015 251
255 045 255
255 042 240
224 038 198
171 022 142
141 005 109
113 001 078
062 000 027
021 000 000
021 000 000
021 000 000
021 000 000
021 000 000
021 000 000
021 000 000
021 000 000
021 000 000
021 000 000
021 000 000
021 000 000
021 000 000
021 000 000
255 082 255
255 134 255
255 142 255
231 121 255
207 057 255
021 000 000
021 000 000
021 000 000
021 000 000
021 000 000
021 000 000
021 000 000
021 000 000
021 000 000
023 002 002
023 002 002
023 001 001
022 001 001
022 001 001
195 255 004
224 255 031
250 255 056
255 255 062
198 110 008
255 186 048
220 119 010
022 001 001
022 000 000
021 000 000
021 000 000
021 000 000
021 000 000
021 000 000
021 000 000
021 000 000
021 000 000
021 000 000
021 000 000
021 000 000
021 000 000
021 000 000
021 000 000
035 168 184
061 144 179
065 106 149
064 083 122
058 073 107
046 060 084
033 043 053
022 001 002
021 000 000
021 000 000
021 000 000
021 000 000
021 000 000
021 000 000
021 000 000
021 000 000
021 000 000
021 000 000
021 000 000
021 000 000
021 000 000
255 057 255
255 060 255
255 064 255
255 048 255
255 020 255
255 007 255
220 013 228
021 000 000
021 000 000
021 000 000
021 000 000
021 000 000
021 000 000
021 000 000
021 000 000
023 002 002
023 001 001
022 001 001
022 001 001
181 255 001
211 255 028
248 255 062
255 255 101
255 255 131
255 255 122
101 040 000
099 040 000
022 000 000
021 000 000
021 000 000
021 000 000
021 000 000
021 000 000
021 000 000
021 000 000
021 000 000
021 000 000
021 000 000
021 000 000
021 000 000
021 000 000
021 000 000
021 000 000
111 016 104
086 046 109
069 048 098
063 050 092
058 042 078
052 028 055
040 007 019
034 000 002
021 000 000
021 000 000
021 000 000
021 000 000
021 000 000
021 000 000
021 000 000
021 000 000
021 000 000
021 000 000
021 000 000
021 000 000
046 255 255
138 255 255
217 255 255
255 255 255
252 255 255
184 255 255
110 192 255
064 155 218
021 114 135
021 000 000
021 000 000
021 000 000
021 000 000
021 000 000
021 000 000
021 000 000
022 001 001
022 001 001
022 001 001
022 001 001
182 248 011
211 255 036
249 255 071
255 255 115
255 255 162
255 255 189
098 041 000
099 117 001
075 080 000
021 000 000
021 000 000
021 000 000
021 000 000
021 000 000
021 000 000
021 000 000
021 000 000
021 000 000
021 000 000
021 000 000
021 000 000
021 000 000
021 000 000
021 000 000
021 000 000
054 014 049
077 013 066
078 009 061
065 007 044
046 004 022
036 004 014
021 000 000
021 000 000
021 000 000
021 000 000
021 000 000
021 000 000
021 000 000
021 000 000
021 000 000
021 000 000
021 000 000
021 000 000
169 139 255
117 255 255
115 255 255
146 255 255
175 255 255
158 255 255
096 255 255
034 248 255
014 173 187
020 121 141
021 000 000
021 000 000
021 000 000
021 000 000
021 000 000
021 000 000
021 000 000
022 001 001
022 001 001
026 166 172
193 255 255
131 166 005
132 164 006
234 255 065
255 255 104
255 255 155
255 255 204
255 255 208
255 255 102
127 159 008
058 051 000
021 000 000
021 000 000
021 000 000
021 000 000
021 000 000
021 000 000
021 000 000
021 000 000
021 000 000
021 000 000
021 000 000
021 000 000
021 000 000
021 000 000
021 000 000
021 000 000
036 029 060
028 030 052
027 024 044
030 013 028
021 000 000
021 000 000
021 000 000
021 000 000
021 000 000
021 000 000
021 000 000
021 000 000
021 000 000
021 000 000
021 000 000
021 000 000
021 000 000
255 003 255
255 033 255
255 072 255
255 124 255
255 165 255
255 161 255
230 112 255
164 058 207
138 030 168
113 013 126
021 000 000
021 000 000
021 000 000
021 000 000
021 000 000
021 000 000
021 000 000
022 001 001
022 001 001
026 165 172
026 167 175
168 255 255
132 166 005
131 166 005
247 255 083
255 255 124
255 255 175
255 255 212
255 255 158
151 186 024
073 074 000
021 000 000
021 000 000
021 000 000
021 000 000
021 000 000
021 000 000
021 000 000
021 000 000
021 000 000
021 000 000
021 000 000
021 000 000
021 000 000
021 000 000
021 000 000
021 000 000
021 000 000
021 000 000
021 000 000
021 000 000
021 000 000
021 000 000
021 000 000
021 000 000
021 000 000
021 000 000
021 000 000
021 000 000
021 000 000
021 000 000
021 000 000
021 000 000
021 000 000
085 152 240
163 116 255
202 085 255
224 073 255
233 072 255
213 061 240
176 040 200
145 027 170
113 027 140
069 028 098
021 000 000
021 000 000
021 000 000
021 000 000
021 000 000
021 000 000
021 000 000
022 001 001
022 001 001
025 168 176
021 019 024
114 250 254
133 165 005
131 165 005
214 255 059
245 255 088
255 255 124
255 255 164
255 255 164
180 215 052
079 084 000
043 025 000
021 000 000
021 000 000
021 000 000
021 000 000
021 000 000
021 000 000
021 000 000
021 000 000
021 000 000
021 000 000
021 000 000
021 000 000
021 000 000
021 000 000
021 000 000
021 000 000
021 000 000
021 000 000
021 000 000
021 000 000
021 000 000
021 000 000
021 000 000
021 000 000
021 000 000
021 000 000
021 000 000
021 000 000
021 000 000
021 000 000
021 000 000
021 000 000
024 141 175
002 196 206
001 197 208
007 185 197
013 161 178
014 149 168
012 140 156
008 124 136
003 100 105
000 053 059
021 000 000
021 000 000
021 000 000
021 000 000
021 000 000
021 000 000
021 000 000
022 001 001
022 001 001
025 167 178
255 255 255
062 160 160
133 168 004
035 014 105
183 231 038
203 252 054
224 255 075
246 255 098
255 255 117
191 221 070
083 088 001
049 031 000
021 000 000
021 000 000
021 000 000
021 000 000
021 000 000
021 000 000
021 000 000
021 000 000
021 000 000
021 000 000
021 000 000
021 000 000
021 000 000
021 000 000
021 000 000
021 000 000
021 000 000
021 000 000
021 000 000
021 000 000
021 000 000
021 000 000
021 000 000
021 000 000
021 000 000
021 000 000
021 000 000
021 000 000
021 000 000
021 000 000
021 000 000
021 000 000
107 000 097
115 025 138
094 047 143
072 058 136
062 069 135
054 071 130
049 066 119
044 051 098
034 027 063
011 002 013
021 000 000
021 000 000
021 000 000
021 000 000
021 000 000
021 000 000
021 000 000
022 001 001
022 001 001
025 170 183
112 057 063
029 103 118
026 096 106
069 048 122
080 059 125
168 210 030
176 219 037
181 219 044
185 219 055
163 184 053
085 089 002
050 035 000
021 000 000
021 000 000
021 000 000
021 000 000
021 000 000
021 000 000
021 000 000
021 000 000
021 000 000
021 000 000
021 000 000
021 000 000
021 000 000
021 000 000
021 000 000
021 000 000
021 000 000
021 000 000
021 000 000
021 000 000
021 000 000
021 000 000
021 000 000
021 000 000
021 000 000
021 000 000
021 000 000
021 000 000
021 000 000
021 000 000
021 000 000
021 000 000
021 000 000
040 015 058
074 009 083
092 005 096
095 003 097
089 002 089
072 001 072
045 001 045
023 002 025
021 000 000
021 000 000
021 000 000
021 000 000
021 000 000
021 000 000
021 000 000
021 000 000
022 001 001
022 001 001
022 001 001
056 206 207
025 172 183
021 079 093
035 014 065
040 007 050
142 177 014
142 177 015
137 167 014
130 153 015
117 127 020
081 083 000
048 028 000
251 255 224
251 255 224
250 255 224
250 003 223
250 003 224
250 003 223
021 000 000
021 000 000
021 000 000
021 000 000
021 000 000
021 000 000
021 000 000
021 000 000
021 000 000
021 000 000
021 000 000
021 000 000
021 000 000
021 000 000
021 000 000
021 000 000
021 000 000
021 000 000
021 000 000
021 000 000
021 000 000
021 000 000
021 000 000
021 000 000
021 000 000
021 000 000
021 000 000
021 000 000
000 045 072
002 037 064
004 035 058
005 034 053
004 027 047
001 024 038
021 000 000
021 000 000
021 000 000
021 000 000
021 000 000
021 000 000
021 000 000
021 000 000
021 000 000
022 001 001
022 001 001
022 000 000
051 255 255
024 176 188
021 055 077
021 043 060
255 117 255
123 144 005
119 142 005
113 129 002
100 108 001
092 094 002
074 071 000
041 017 000
251 255 224
251 004 224
250 255 224
250 003 224
250 003 224
250 003 224
250 003 223
250 255 223
250 002 223
021 000 000
021 000 000
021 000 000
021 000 000
021 000 000
021 000 000
021 000 000
021 000 000
021 000 000
021 000 000
021 000 000
214 129 004
213 129 004
213 129 004
213 129 004
213 128 004
213 129 004
255 198 002
255 190 001
255 180 000
255 163 000
021 000 000
021 000 000
021 000 000
021 000 000
021 000 000
021 000 000
021 000 000
021 000 000
021 000 000
021 000 000
021 000 000
021 000 000
021 000 000
021 000 000
021 000 000
021 000 000
021 000 000
021 000 000
021 000 000
255 009 233
254 008 233
253 008 234
024 179 196
021 034 073
021 035 052
021 024 033
232 251 208
107 113 001
103 108 001
095 098 000
089 085 000
084 078 000
062 046 000
042 015 000
027 000 001
026 000 000
250 255 224
250 003 224
250 003 224
250 255 224
250 003 223
250 255 224
250 255 223
250 255 223
250 255 223
021 000 000
021 000 000
021 000 000
021 000 000
021 000 000
021 000 000
021 000 000
021 000 000
216 130 003
215 131 003
214 130 004
215 131 004
213 132 004
213 131 004
214 130 004
213 130 004
214 130 004
212 128 004
255 200 006
255 188 002
255 172 000
251 148 000
021 000 000
021 000 000
021 000 000
021 000 000
021 000 000
021 000 000
021 000 000
021 000 000
021 000 000
021 000 000
021 000 000
021 000 000
021 000 000
021 000 000
021 000 000
021 000 000
255 255 238
255 255 236
255 255 236
253 255 242
023 000 000
022 000 000
022 000 000
023 000 000
093 097 000
088 086 000
085 076 000
082 074 000
072 054 000
048 025 000
038 018 000
026 000 001
026 000 000
026 000 000
124 126 099
251 003 224
251 255 224
250 255 224
250 003 224
250 255 224
250 002 224
250 002 223
250 002 223
250 002 224
021 000 000
021 000 000
021 000 000
021 000 000
021 000 000
021 000 000
209 255 000
214 255 002
220 255 006
225 255 010
229 255 012
231 255 012
231 255 011
219 139 004
214 134 004
213 130 004
213 130 004
213 130 004
255 202 008
255 187 003
255 169 000
242 142 000
021 000 000
021 000 000
021 000 000
021 000 000
021 000 000
021 000 000
021 000 000
021 000 000
021 000 000
021 000 000
021 000 000
021 000 000
021 000 000
021 000 000
255 255 234
255 255 233
255 009 232
255 009 232
255 008 229
254 008 229
253 255 228
252 255 228
251 255 227
093 000 000
079 067 000
073 052 000
059 038 000
043 025 000
024 000 000
025 000 000
026 000 000
026 001 001
026 001 001
125 126 099
125 000 098
251 003 224
251 003 225
251 003 224
250 255 224
250 002 225
250 255 223
250 255 224
249 255 223
249 255 223
248 255 223
021 000 000
021 000 000
206 255 002
217 255 008
225 255 015
234 255 022
241 255 028
248 255 033
253 255 036
255 255 036
252 255 034
248 255 029
243 255 021
216 136 003
213 131 003
213 129 004
255 214 016
255 196 007
255 178 002
255 157 000
021 000 000
021 000 000
021 000 000
021 000 000
021 000 000
021 000 000
021 000 000
021 000 000
021 000 000
021 000 000
021 000 000
021 000 000
021 000 000
255 010 233
255 255 231
255 255 231
255 255 230
255 255 230
255 008 230
255 008 229
254 008 228
253 007 228
153 163 129
022 000 000
025 000 000
023 000 000
023 000 000
024 000 000
025 000 000
026 000 000
027 000 000
125 000 099
126 000 099
125 125 098
125 125 099
251 255 224
251 255 224
251 003 224
250 255 224
250 255 224
250 002 223
250 002 224
250 002 223
249 002 223
249 255 223
199 255 003
209 255 009
220 255 017
230 255 025
240 255 033
250 255 041
255 255 048
255 255 054
255 255 059
255 255 060
255 255 058
255 255 052
255 255 041
250 255 028
215 132 003
213 129 003
212 129 003
255 203 012
255 184 004
255 164 000
021 000 000
021 000 000
021 000 000
021 000 000
021 000 000
021 000 000
021 000 000
021 000 000
021 000 000
021 000 000
021 000 000
021 000 000
255 011 232
255 010 232
255 255 231
255 010 231
255 255 230
255 255 230
255 008 229
255 255 229
255 255 228
254 007 228
253 255 228
123 000 098
123 000 098
123 125 098
124 000 098
124 125 098
125 125 098
125 000 098
126 125 099
126 125 099
127 000 100
125 000 098
252 004 225
251 003 224
251 255 224
251 255 224
251 255 224
250 255 223
250 255 223
251 002 223
250 255 223
188 255 001
198 255 007
208 255 014
219 255 021
229 255 030
240 255 038
251 255 047
255 255 056
255 255 064
255 255 072
255 255 078
255 255 082
255 255 082
255 255 076
255 255 065
255 255 047
218 138 003
214 132 003
212 129 003
255 209 017
255 186 005
255 166 001
237 140 000
021 000 000
021 000 000
021 000 000
021 000 000
021 000 000
021 000 000
021 000 000
021 000 000
021 000 000
021 000 000
255 255 233
255 011 232
255 011 232
255 010 231
255 010 231
255 255 230
255 255 230
255 009 229
255 255 229
255 255 229
255 007 228
255 255 228
254 007 227
254 006 228
254 006 227
254 006 227
253 005 226
253 255 226
253 255 226
254 255 226
253 255 226
253 004 226
252 004 225
252 255 224
251 003 224
251 003 224
251 255 224
251 003 223
251 255 223
250 255 223
173 255 000
185 255 003
194 255 009
204 255 015
214 255 022
224 255 030
235 255 039
246 255 048
255 255 057
255 255 067
255 255 077
255 255 087
255 255 096
255 255 102
255 255 105
255 255 101
255 255 089
255 255 069
255 255 043
214 131 003
212 129 003
255 213 023
255 186 007
255 165 001
236 140 000
021 000 000
021 000 000
021 000 000
021 000 000
021 000 000
021 000 000
021 000 000
021 000 000
021 000 000
255 255 233
255 255 233
255 011 232
255 011 232
255 010 231
255 010 231
255 010 230
255 255 230
255 009 230
255 255 229
255 255 230
255 008 228
255 255 228
255 255 228
255 007 228
254 006 227
254 006 227
254 006 226
253 255 226
253 255 226
253 005 226
253 255 225
252 255 225
252 004 225
252 255 224
251 255 224
251 003 224
251 003 224
251 003 223
251 003 223
169 255 001
179 255 004
188 255 009
197 255 014
207 255 021
216 255 028
227 255 036
238 255 044
250 255 053
255 255 064
255 255 075
255 255 086
255 255 098
255 255 110
255 255 120
255 255 127
255 255 126
255 255 115
255 255 092
255 255 060
215 132 003
213 131 003
255 216 028
255 184 007
095 060 000
094 059 000
021 000 000
021 000 000
021 000 000
021 000 000
021 000 000
021 000 000
021 000 000
021 000 000
255 013 234
255 255 233
255 255 233
255 011 232
255 011 232
255 011 231
255 010 231
255 010 230
255 255 230
255 009 230
255 255 230
255 255 229
255 255 228
255 255 228
255 255 228
255 007 227
255 006 227
254 006 227
254 006 226
254 005 226
253 255 226
253 255 225
253 004 225
252 255 225
252 255 225
252 004 224
251 255 224
251 003 224
251 003 224
251 003 223
164 253 001
173 255 004
132 202 002
133 202 002
133 203 002
133 203 002
133 200 002
227 255 039
238 255 047
250 255 057
255 255 068
255 255 080
255 255 093
255 255 108
255 255 123
255 255 137
255 255 148
255 255 151
255 255 142
255 255 117
255 255 077
215 133 002
213 131 003
096 062 000
096 061 000
096 061 000
021 000 000
021 000 000
021 000 000
021 000 000
021 000 000
021 000 000
021 000 000
021 000 000
255 255 234
255 013 234
255 255 233
255 255 233
255 012 233
255 011 232
255 255 231
255 010 231
255 010 231
255 255 230
255 255 230
255 255 229
255 255 229
255 255 229
255 007 228
255 007 228
255 255 228
255 006 227
254 006 227
254 255 226
253 005 226
253 005 226
253 255 225
253 255 226
253 255 225
252 255 225
252 255 224
252 003 224
251 003 224
141 212 000
157 243 001
130 198 002
132 198 002
132 201 002
133 203 002
133 202 002
133 205 002
133 203 002
133 205 002
237 255 048
249 255 058
255 255 070
255 255 083
255 255 098
255 255 116
255 255 134
255 255 153
255 255 168
255 255 175
255 255 168
255 255 141
255 255 094
101 066 000
104 069 000
117 183 000
101 066 000
021 000 000
021 000 000
021 000 000
021 000 000
021 000 000
021 000 000
021 000 000
021 000 000
255 255 235
255 255 234
255 013 234
255 013 234
255 012 233
255 012 232
255 011 232
255 255 232
255 255 231
255 010 231
255 255 230
255 255 230
255 255 229
255 008 229
255 255 229
255 008 228
255 007 228
255 007 228
255 006 228
254 006 227
254 006 227
253 255 226
253 255 226
255 002 255
255 002 255
255 002 255
255 255 255
255 255 255
255 002 255
136 204 000
130 198 001
088 073 191
148 134 254
132 203 001
133 202 001
133 206 002
133 201 002
133 202 002
133 198 002
133 202 002
233 255 048
246 255 058
255 255 070
255 255 085
255 255 102
255 255 122
255 255 144
255 255 168
255 255 188
255 255 200
255 255 194
255 255 164
255 255 108
234 255 044
125 198 003
106 168 000
075 118 000
021 000 000
021 000 000
021 000 000
021 000 000
021 000 000
021 000 000
021 000 000
255 015 236
255 014 235
255 014 235
255 013 234
255 013 234
255 012 233
255 255 233
255 255 232
255 011 232
255 255 231
255 255 231
255 010 230
255 255 230
255 255 229
255 008 229
255 008 229
255 008 228
255 255 255
255 255 255
255 003 255
255 003 255
255 003 255
255 003 255
255 003 255
255 003 255
255 255 255
255 002 255
255 002 255
255 255 255
129 188 000
030 015 117
104 089 200
127 113 224
132 200 001
134 202 001
134 201 001
133 203 001
133 199 001
132 203 001
132 203 001
132 202 002
229 255 046
242 255 057
255 255 069
255 255 085
255 255 104
255 255 127
255 255 153
255 255 181
255 255 207
255 255 223
255 255 218
255 255 182
255 255 115
223 255 041
167 255 003
132 212 000
060 094 000
021 000 000
021 000 000
021 000 000
021 000 000
021 000 000
021 000 000
255 016 237
255 015 236
255 015 235
255 014 235
255 255 234
255 255 234
255 013 234
255 255 233
255 255 233
255 255 232
255 011 232
255 005 255
255 005 255
255 255 255
255 255 255
255 004 255
255 255 255
255 255 255
255 004 255
255 004 255
255 003 255
255 003 255
255 003 255
255 003 255
255 255 255
255 255 255
255 002 255
255 255 255
255 255 255
116 172 000
035 020 113
077 062 162
078 063 162
105 105 200
134 204 001
135 207 001
134 204 001
134 207 001
133 203 001
133 207 001
132 202 001
132 202 001
009 060 000
003 031 000
002 004 000
001 001 000
000 000 000
000 000 000
000 000 000
000 000 000
255 255 225
255 255 244
255 255 238
255 255 193
255 255 112
205 255 032
152 244 001
112 180 000
000 138 138
021 000 000
021 000 000
021 000 000
021 000 000
021 000 000
255 016 237
255 016 237
255 255 236
255 255 236
255 255 235
255 007 255
255 007 255
255 007 255
255 255 255
255 255 255
255 006 255
255 255 255
255 255 255
255 255 255
255 005 255
255 255 255
255 255 255
255 004 255
255 004 255
255 255 255
255 004 255
255 003 255
255 255 255
255 255 255
255 255 255
255 255 255
255 255 255
255 255 255
255 002 255
255 002 255
224 255 255
040 025 110
036 021 105
056 056 137
135 203 001
135 205 001
135 207 001
135 203 001
134 204 001
133 199 001
133 201 001
009 050 000
007 032 000
003 005 000
000 125 125
001 255 255
005 255 255
009 255 255
012 255 255
012 255 255
000 189 189
000 000 000
255 255 255
255 255 250
255 255 192
255 255 096
179 255 017
133 215 000
084 133 000
000 148 148
000 189 189
021 000 000
021 000 000
021 000 000
255 009 255
255 009 255
255 008 255
255 255 255
255 008 255
255 007 255
255 255 255
255 255 255
255 255 255
255 255 255
255 255 255
255 255 255
255 006 255
255 005 255
255 255 255
255 005 255
255 005 255
255 004 255
255 255 255
255 255 255
255 004 255
255 255 255
255 255 255
255 255 255
255 003 255
255 255 255
255 255 255
255 003 255
255 002 255
255 002 255
235 255 255
250 051 255
017 003 069
013 013 076
136 206 001
136 204 001
135 204 001
135 205 001
134 200 001
134 201 001
013 039 000
009 032 000
004 009 000
001 255 255
008 255 255
018 255 255
026 255 255
030 255 255
030 255 255
027 255 255
023 255 255
018 255 255
013 255 255
255 255 255
255 255 251
255 255 174
233 255 067
150 240 005
109 175 000
000 158 158
000 147 147
000 171 171
021 000 000
021 000 000
255 009 255
255 255 255
255 255 255
255 255 255
255 255 255
255 255 255
255 255 255
255 007 255
255 007 255
255 255 255
255 006 255
255 006 255
255 006 255
255 255 255
255 005 255
255 005 255
255 255 255
255 255 255
255 255 255
255 255 255
255 255 255
255 255 255
255 004 255
255 003 255
255 003 255
255 003 255
255 003 255
255 003 255
255 255 255
255 255 255
208 255 225
255 080 255
255 255 255
255 255 255
138 210 001
138 208 001
136 206 001
136 206 001
135 206 001
134 206 001
010 023 000
006 013 000
001 204 212
001 202 211
001 203 210
001 202 209
055 255 255
059 255 255
057 255 255
053 255 255
045 255 255
036 255 255
027 255 255
018 255 255
255 255 255
255 255 233
255 255 134
055 094 000
055 094 000
055 094 000
000 153 153
000 141 141
000 144 144
021 000 000
255 255 255
255 255 255
255 009 255
255 255 255
255 255 255
255 008 255
255 008 255
255 008 255
255 255 255
255 007 255
255 007 255
255 255 255
255 255 255
255 255 255
255 255 255
255 255 255
255 255 255
255 005 255
255 005 255
255 255 255
255 004 255
255 004 255
255 004 255
255 004 255
255 255 255
255 003 255
255 003 255
255 255 255
255 255 255
255 255 255
255 255 255
243 044 248
255 255 255
255 255 255
255 192 255
255 255 255
255 147 255
136 204 001
137 207 001
135 203 001
028 045 000
001 204 214
001 201 213
001 205 212
001 201 211
001 203 210
001 200 210
102 255 255
099 255 255
091 255 255
079 255 255
064 255 255
049 255 255
034 255 255
021 255 255
255 255 255
054 094 000
054 095 000
000 000 000
000 000 000
000 155 155
000 166 166
000 142 142
021 000 000
255 010 255
255 010 255
255 010 255
255 009 255
255 009 255
255 009 255
255 255 255
255 255 255
255 255 255
255 255 255
255 255 255
255 255 255
255 007 255
255 006 255
255 255 255
255 006 255
255 006 255
255 005 255
255 005 255
255 255 255
255 005 255
255 004 255
255 255 255
255 255 255
255 255 255
255 255 255
255 255 255
255 255 255
255 003 255
255 003 255
255 003 255
144 218 001
231 033 226
255 255 255
255 255 255
255 255 255
255 255 255
042 000 000
138 207 001
042 063 000
001 207 216
001 208 216
001 205 215
001 206 213
001 204 212
001 202 210
001 202 211
001 202 209
151 255 255
138 255 255
118 255 255
096 255 255
073 255 255
052 255 255
034 255 255
020 255 255
010 193 193
004 181 181
001 172 172
000 164 163
000 155 154
000 144 144
000 133 133
000 113 113
255 255 255
255 255 255
255 255 255
255 010 255
255 255 255
255 255 255
255 255 255
255 008 255
255 008 255
255 255 255
255 008 255
255 007 255
255 007 255
255 255 255
255 255 255
255 006 255
255 255 255
255 255 255
255 255 255
255 255 255
255 005 255
255 255 255
255 255 255
255 004 255
255 004 255
255 004 255
255 004 255
255 003 255
255 003 255
255 003 255
255 255 255
255 255 255
131 002 125
073 000 000
216 255 214
116 007 114
056 000 000
051 000 000
047 000 000
040 000 000
001 206 218
001 206 216
001 205 215
000 037 043
000 025 028
000 012 016
001 203 211
001 202 211
001 202 209
180 255 255
153 255 255
123 255 255
093 255 255
066 255 255
043 255 255
025 255 255
013 234 233
005 181 179
001 170 169
000 161 160
000 152 152
000 141 141
000 130 130
000 113 113
185 226 177
255 011 255
255 010 255
255 010 255
255 010 255
255 009 255
255 009 255
255 009 255
255 255 255
255 255 255
255 008 255
255 255 255
255 255 255
255 255 255
255 007 255
255 006 255
255 255 255
255 255 255
255 006 255
255 005 255
255 005 255
255 255 255
255 005 255
255 004 255
255 255 255
255 255 255
255 255 255
255 004 255
255 255 255
255 255 255
255 255 255
255 003 255
129 003 125
129 159 125
080 000 000
127 000 000
135 000 000
063 000 000
056 000 000
050 000 000
001 208 221
001 206 218
000 035 041
000 025 031
000 018 022
000 011 013
000 006 008
001 203 211
001 203 210
207 255 255
173 255 255
137 255 255
103 255 255
072 255 255
046 255 255
027 245 244
013 219 219
005 198 197
001 165 165
000 156 156
000 147 147
000 137 137
000 126 126
000 110 110
185 226 177
255 255 255
255 255 255
255 255 255
255 255 255
255 255 255
255 255 255
255 255 255
255 009 255
255 009 255
255 008 255
255 255 255
255 008 255
255 007 255
255 007 255
255 255 255
255 255 255
255 006 255
255 006 255
255 255 255
255 255 255
255 255 255
255 005 255
255 255 255
255 255 255
255 255 255
255 004 255
255 004 255
255 004 255
255 003 255
255 003 255
255 003 255
129 003 125
128 159 125
002 000 000
102 000 000
118 000 000
119 000 000
072 000 000
062 000 000
001 209 222
001 207 221
000 080 084
000 017 023
000 012 016
000 007 011
003 000 000
001 202 211
001 206 211
001 203 209
173 255 255
134 255 255
098 255 255
067 255 255
042 255 255
023 225 225
011 200 200
004 180 180
001 158 158
000 150 150
000 141 141
000 131 131
000 119 120
000 104 105
021 000 000
185 226 177
255 011 255
255 011 255
255 011 255
255 010 255
255 010 255
255 010 255
255 009 255
255 255 255
255 255 255
255 255 255
255 008 255
255 255 255
255 255 255
255 255 255
255 007 255
255 007 255
255 255 255
255 255 255
255 006 255
255 005 255
255 005 255
255 255 255
255 005 255
255 004 255
255 004 255
255 255 255
255 255 255
255 255 255
255 255 255
255 255 255
255 255 255
255 255 255
156 000 153
002 000 000
107 000 000
100 000 000
090 000 000
069 000 000
000 212 223
000 216 223
000 104 111
000 107 112
000 115 117
255 248 248
255 255 255
145 101 101
001 205 213
001 202 210
151 255 255
114 255 255
081 255 255
053 255 255
031 228 229
016 201 201
007 179 179
002 160 160
000 151 151
000 142 143
000 133 134
000 123 124
000 112 113
000 097 098
021 000 000
185 226 177
185 000 177
255 255 255
255 255 255
255 255 255
255 255 255
255 255 255
255 255 255
255 255 255
255 009 255
255 009 255
255 008 255
255 008 255
255 008 255
255 007 255
255 007 255
255 255 255
255 255 255
255 255 255
255 006 255
255 255 255
255 255 255
255 255 255
255 255 255
255 005 255
255 255 255
255 255 255
255 004 255
255 004 255
255 004 255
255 003 255
255 003 255
255 003 255
255 003 255
157 195 153
155 195 153
154 195 153
001 000 000
001 000 000
000 212 225
000 205 223
000 130 135
000 135 137
255 247 248
255 255 255
255 255 255
255 255 255
000 205 213
000 203 212
113 255 255
083 255 255
056 255 255
035 225 226
019 198 198
009 175 175
003 159 160
001 150 151
000 142 143
000 134 135
000 126 126
000 115 116
000 104 105
000 086 090
021 000 000
021 000 000
185 000 177
185 226 177
255 012 255
255 011 255
255 011 255
255 255 255
255 255 255
255 010 255
255 010 255
255 255 255
255 255 255
255 255 255
255 255 255
255 255 255
255 255 255
255 255 255
255 007 255
255 007 255
255 006 255
255 006 255
255 006 255
255 005 255
255 005 255
255 005 255
255 255 255
255 255 255
255 004 255
255 255 255
255 255 255
255 255 255
255 255 255
255 003 255
255 003 255
255 255 255
255 255 255
158 000 153
156 000 153
155 000 153
000 215 229
000 221 225
001 155 157
001 158 160
255 235 237
255 255 255
255 255 255
255 185 187
012 006 007
000 200 213
000 201 212
050 244 245
032 215 216
018 189 190
009 169 170
003 157 159
001 149 150
000 141 142
000 133 134
000 125 126
000 116 118
000 106 107
000 092 096
000 074 079
021 000 000
021 000 000
021 000 000
185 226 177
255 012 255
255 255 255
255 255 255
255 255 255
255 011 255
255 010 255
255 010 255
255 255 255
255 009 255
255 009 255
255 009 255
255 008 255
255 255 255
255 255 255
255 007 255
255 255 255
255 255 255
255 255 255
255 255 255
255 006 255
255 255 255
255 255 255
255 255 255
255 005 255
255 004 255
255 004 255
255 004 255
255 004 255
255 004 255
255 003 255
255 003 255
255 255 255
255 255 255
255 003 255
255 255 255
255 255 255
000 214 231
000 221 230
005 177 178
006 182 182
173 097 104
170 096 104
155 090 095
139 080 086
124 075 076
000 208 217
000 205 214
023 195 198
013 174 177
006 163 165
003 153 155
001 146 147
000 139 140
000 131 133
000 123 125
000 116 118
000 107 109
000 096 098
000 081 085
000 058 065
021 000 000
021 000 000
021 000 000
185 226 177
185 226 177
255 255 255
255 255 255
255 012 255
255 011 255
255 255 255
255 255 255
255 255 255
255 255 255
255 255 255
255 255 255
255 255 255
255 255 255
255 008 255
255 008 255
255 007 255
255 007 255
255 007 255
255 006 255
255 006 255
255 255 255
255 255 255
255 255 255
255 005 255
255 255 255
255 255 255
255 255 255
255 255 255
255 004 255
255 255 255
255 255 255
255 255 255
255 003 255
255 003 255
255 003 255
255 002 255
255 002 255
000 202 231
011 228 228
011 237 238
011 198 199
064 032 046
077 042 053
068 043 048
055 037 039
000 207 217
000 206 216
007 162 166
003 155 158
001 147 151
000 140 144
000 135 137
000 127 131
000 119 123
000 112 116
000 105 108
000 095 098
000 082 088
000 065 073
000 039 051
021 000 000
021 000 000
021 000 000
021 000 000
185 000 177
185 000 177
255 012 255
255 012 255
255 012 255
255 255 255
255 011 255
255 010 255
255 010 255
255 010 255
255 255 255
255 255 255
255 009 255
255 008 255
255 255 255
255 255 255
255 255 255
255 255 255
255 007 255
255 255 255
255 255 255
255 006 255
255 006 255
255 005 255
255 005 255
255 005 255
255 005 255
255 004 255
255 004 255
255 255 255
255 255 255
255 255 255
255 003 255
255 255 255
255 255 255
255 255 255
255 255 255
000 221 234
000 216 232
011 255 255
001 081 081
001 088 088
000 007 007
000 004 004
000 002 002
000 203 219
000 207 217
001 145 149
000 140 144
000 135 139
000 130 134
000 124 127
000 118 121
000 107 114
000 100 106
000 092 097
000 081 087
000 068 076
000 049 063
000 034 048
021 000 000
021 000 000
021 000 000
021 000 000
021 000 000
185 000 177
185 226 177
255 255 255
255 255 255
255 255 255
255 255 255
255 011 255
255 255 255
255 255 255
255 255 255
255 009 255
255 009 255
255 009 255
255 008 255
255 008 255
255 008 255
255 007 255
255 007 255
255 255 255
255 255 255
255 255 255
255 006 255
255 255 255
255 255 255
255 255 255
255 255 255
255 005 255
255 004 255
255 255 255
255 255 255
255 004 255
255 003 255
255 003 255
255 003 255
255 255 255
255 003 255
000 210 238
000 219 236
007 255 255
005 255 255
004 113 113
004 119 119
004 122 122
003 126 126
000 209 220
000 209 218
000 134 138
000 127 133
000 119 128
000 114 123
000 111 116
000 104 110
000 095 103
000 085 095
000 081 086
000 069 076
000 053 064
000 029 047
006 000 000
021 000 000
021 000 000
021 000 000
021 000 000
021 000 000
185 226 177
185 226 177
255 255 255
255 013 255
255 012 255
255 012 255
255 255 255
255 255 255
255 255 255
255 255 255
255 255 255
255 255 255
255 255 255
255 255 255
255 255 255
255 008 255
255 008 255
255 255 255
255 255 255
255 007 255
255 006 255
255 006 255
255 006 255
255 255 255
255 005 255
255 005 255
255 005 255
255 255 255
255 255 255
255 255 255
255 255 255
255 255 255
255 255 255
255 255 255
255 255 255
255 003 255
255 003 255
000 219 239
000 225 238
004 255 255
003 255 255
002 255 255
001 255 255
000 213 225
000 207 224
000 205 221
000 117 125
000 115 123
000 108 117
000 101 112
000 097 107
000 089 100
000 076 091
000 067 083
000 061 074
000 047 063
000 025 054
005 000 000
006 000 000
021 000 000
021 000 000
021 000 000
021 000 000
021 000 000
021 000 000
185 226 177
185 000 177
255 013 255
255 013 255
255 012 255
255 255 255
255 011 255
255 011 255
255 011 255
255 010 255
255 255 255
255 255 255
255 009 255
255 009 255
255 255 255
255 255 255
255 255 255
255 255 255
255 255 255
255 255 255
255 255 255
255 255 255
255 255 255
255 006 255
255 005 255
255 005 255
255 255 255
255 004 255
255 004 255
255 004 255
255 004 255
255 255 255
255 255 255
255 255 255
255 003 255
255 255 255
000 222 242
000 219 240
000 221 238
000 213 236
000 255 255
000 216 229
000 212 227
000 210 226
000 211 224
000 102 116
000 100 112
000 096 108
000 089 102
000 084 096
000 075 089
000 065 081
000 051 071
000 046 058
000 041 067
005 000 000
005 000 000
159 195 153
021 000 000
021 000 000
021 000 000
021 000 000
021 000 000
021 000 000
021 000 000
185 000 177
185 226 177
255 255 255
255 255 255
255 255 255
255 255 255
255 011 255
255 255 255
255 255 255
255 255 255
255 010 255
255 010 255
255 009 255
255 009 255
255 008 255
255 008 255
255 008 255
255 007 255
255 007 255
255 255 255
255 255 255
255 255 255
255 006 255
255 255 255
255 255 255
255 255 255
255 255 255
255 004 255
255 004 255
255 255 255
255 255 255
255 004 255
255 003 255
255 003 255
255 003 255
255 003 255
000 232 244
000 226 242
000 218 239
000 213 237
000 213 233
000 219 231
000 214 228
000 090 111
000 079 106
000 083 102
000 076 096
000 071 090
000 064 084
000 055 077
000 046 067
000 049 068
001 000 000
003 000 000
004 000 000
158 000 153
158 000 153
021 000 000
021 000 000
021 000 000
021 000 000
021 000 000
021 000 000
021 000 000
185 226 177
185 226 177
255 255 255
255 013 255
255 013 255
255 012 255
255 012 255
255 255 255
255 255 255
255 255 255
255 255 255
255 255 255
255 255 255
255 255 255
255 255 255
255 008 255
255 008 255
255 008 255
255 255 255
255 255 255
255 007 255
255 006 255
255 006 255
255 006 255
255 255 255
255 255 255
255 005 255
255 005 255
255 255 255
255 255 255
255 255 255
255 255 255
255 255 255
255 255 255
255 255 255
255 255 255
255 255 255
000 229 247
000 213 240
000 220 239
000 220 236
000 221 235
000 213 230
000 074 095
000 065 093
000 061 089
000 058 085
000 051 077
000 036 073
000 034 077
000 058 086
000 000 000
001 000 000
002 000 000
156 195 153
157 000 154
158 196 154
021 000 000
021 000 000
021 000 000
021 000 000
021 000 000
021 000 000
021 000 000
021 000 000
185 000 177
185 226 177
255 014 255
255 013 255
255 013 255
255 012 255
255 255 255
255 012 255
255 011 255
255 011 255
255 010 255
255 255 255
255 255 255
255 255 255
255 009 255
255 255 255
255 255 255
255 255 255
255 255 255
255 255 255
255 007 255
255 255 255
255 255 255
255 255 255
255 006 255
255 005 255
255 005 255
255 005 255
255 004 255
255 004 255
255 004 255
255 004 255
255 004 255
255 255 255
255 255 255
255 255 255
255 255 255
001 000 000
000 222 242
000 224 238
000 226 238
000 057 086
000 048 085
000 049 085
000 052 087
000 058 091
000 072 094
000 000 000
000 000 000
000 000 000
001 000 000
154 195 153
154 000 153
155 000 153
156 000 154
157 196 154
021 000 000
021 000 000
021 000 000
021 000 000
021 000 000
021 000 000
021 000 000
021 000 000
021 000 000
185 226 177
185 000 177
255 255 255
255 255 255
255 255 255
255 255 255
255 012 255
255 012 255
255 011 255
255 255 255
255 255 255
255 010 255
255 010 255
255 009 255
255 009 255
255 255 255
255 255 255
255 008 255
255 007 255
255 007 255
255 255 255
255 255 255
255 255 255
255 255 255
255 006 255
255 255 255
255 255 255
255 255 255
255 255 255
255 004 255
255 004 255
255 004 255
255 255 255
255 003 255
255 003 255
255 003 255
255 003 255
255 003 255
001 000 000
000 000 000
000 000 000
000 000 000
000 000 000
000 000 000
000 000 000
000 000 000
153 195 153
154 000 153
154 196 153
154 196 154
154 196 154
154 000 154
155 000 154
156 000 154
157 000 154
021 000 000
021 000 000
021 000 000
021 000 000
021 000 000
021 000 000
021 000 000
021 000 000
021 000 000
185 226 177
185 000 177
185 226 177
255 255 255
255 255 255
255 013 255
255 012 255
255 255 255
255 255 255
255 255 255
255 255 255
255 255 255
255 010 255
255 255 255
255 255 255
255 255 255
255 008 255
255 008 255
255 008 255
255 007 255
255 007 255
255 007 255
255 006 255
255 006 255
255 006 255
255 255 255
255 255 255
255 255 255
255 255 255
255 004 255
255 255 255
255 255 255
255 255 255
255 255 255
255 255 255
255 003 255
255 003 255
255 255 255
255 255 255
255 002 255
154 000 153
154 000 154
154 000 154
154 000 154
154 197 154
154 000 154
154 000 154
154 000 154
154 197 154
154 198 155
154 198 155
155 198 155
156 198 155
156 198 155
157 198 155
021 000 000
021 000 000
021 000 000
021 000 000
021 000 000
021 000 000
021 000 000
021 000 000
021 000 000
021 000 000
185 000 177
185 226 177
255 014 255
255 014 255
255 013 255
255 013 255
255 012 255
255 255 255
255 255 255
255 011 255
255 011 255
255 010 255
255 255 255
255 255 255
255 255 255
255 255 255
255 008 255
255 255 255
255 255 255
255 255 255
255 255 255
255 007 255
255 006 255
255 006 255
255 006 255
255 255 255
255 005 255
255 005 255
255 005 255
255 004 255
255 255 255
255 255 255
255 255 255
255 003 255
255 003 255
255 255 255
255 255 255
255 255 255
255 255 255
255 255 255
255 002 255
155 199 156
154 200 157
154 200 157
154 000 157
154 000 157
154 000 156
155 000 157
155 000 156
155 000 157
156 000 157
156 000 156
157 000 156
158 000 156
021 000 000
021 000 000
021 000 000
021 000 000
021 000 000
021 000 000
021 000 000
021 000 000
021 000 000
021 000 000
021 000 000
185 226 177
185 000 177
255 014 255
255 014 255
255 255 255
255 255 255
255 255 255
255 012 255
255 012 255
255 011 255
255 011 255
255 255 255
255 255 255
255 010 255
255 009 255
255 009 255
255 255 255
255 255 255
255 255 255
255 255 255
255 255 255
255 255 255
255 255 255
255 255 255
255 255 255
255 255 255
255 005 255
255 005 255
255 005 255
255 255 255
255 004 255
255 004 255
255 004 255
255 003 255
255 003 255
255 255 255
255 255 255
255 003 255
255 002 255
255 002 255
255 255 255
255 255 255
255 255 255
155 203 159
155 202 159
156 000 159
156 201 158
156 200 157
157 201 158
157 000 158
157 000 158
158 000 156
158 000 157
021 000 000
021 000 000
021 000 000
021 000 000
021 000 000
021 000 000
021 000 000
021 000 000
021 000 000
021 000 000
021 000 000
021 000 000
185 000 177
185 226 177
255 255 255
255 255 255
255 255 255
255 255 255
255 255 255
255 012 255
255 255 255
255 255 255
255 255 255
255 010 255
255 010 255
255 010 255
255 009 255
255 009 255
255 255 255
255 008 255
255 008 255
255 007 255
255 007 255
255 255 255
255 255 255
255 255 255
255 255 255
255 005 255
255 255 255
255 255 255
255 255 255
255 255 255
255 255 255
255 004 255
255 004 255
255 255 255
255 255 255
255 255 255
255 003 255
255 003 255
255 002 255
255 002 255
255 255 255
255 255 255
255 002 255
255 002 255
255 002 255
255 255 255
158 201 157
158 201 158
158 202 158
158 200 157
158 200 157
255 255 255
021 000 000
021 000 000
021 000 000
021 000 000
021 000 000
021 000 000
021 000 000
021 000 000
021 000 000
021 000 000
021 000 000
021 000 000
185 000 177
185 000 177
255 255 255
255 255 255
255 255 255
255 013 255
255 013 255
255 255 255
255 255 255
255 255 255
255 255 255
255 255 255
255 010 255
255 010 255
255 255 255
255 255 255
255 255 255
255 008 255
255 008 255
255 008 255
255 007 255
255 007 255
255 007 255
255 006 255
255 006 255
255 006 255
255 005 255
255 255 255
255 255 255
255 255 255
255 255 255
255 004 255
255 255 255
255 255 255
255 255 255
255 255 255
255 255 255
255 003 255
255 003 255
255 255 255
255 255 255
255 255 255
255 002 255
255 002 255
255 002 255
255 002 255
255 001 255
255 255 255
255 001 255
255 001 255
255 001 255
255 001 255
021 000 000
021 000 000
021 000 000
021 000 000
021 000 000
021 000 000
021 000 000
021 000 000
021 000 000
021 000 000
021 000 000
021 000 000
021 000 000
185 000 177
185 226 177
255 015 255
255 014 255
255 014 255
255 013 255
255 013 255
255 255 255
255 255 255
255 012 255
255 011 255
255 011 255
255 255 255
255 255 255
255 255 255
255 255 255
255 255 255
255 008 255
255 255 255
255 255 255
255 255 255
255 255 255
255 007 255
255 006 255
255 006 255
255 006 255
255 005 255
255 005 255
255 005 255
255 004 255
255 004 255
255 004 255
255 255 255
255 255 255
255 255 255
255 003 255
255 003 255
255 255 255
255 255 255
255 255 255
255 255 255
255 255 255
255 002 255
255 002 255
255 255 255
255 255 255
255 255 255
255 001 255
255 001 255
255 001 255
255 001 255
021 000 000
021 000 000
021 000 000
021 000 000
021 000 000
021 000 000
021 000 000
021 000 000
021 000 000
021 000 000
021 000 000
021 000 000
021 000 000
021 000 000
185 226 177
185 000 177
255 015 255
255 014 255
255 014 255
255 255 255
255 255 255
255 012 255
255 012 255
255 012 255
255 011 255
255 011 255
255 255 255
255 255 255
255 009 255
255 009 255
255 009 255
255 255 255
255 255 255
255 255 255
255 255 255
255 255 255
255 006 255
255 255 255
255 255 255
255 255 255
255 255 255
255 005 255
255 005 255
255 004 255
255 004 255
255 004 255
255 004 255
255 004 255
255 003 255
255 003 255
255 003 255
255 255 255
255 255 255
255 255 255
255 002 255
255 002 255
255 255 255
255 255 255
255 255 255
255 255 255
255 255 255
255 255 255
255 001 255
083 000 083
021 000 000
021 000 000
021 000 000
021 000 000
021 000 000
021 000 000
021 000 000
021 000 000
021 000 000
021 000 000
021 000 000
021 000 000
021 000 000
021 000 000
185 226 177
185 000 177
185 226 177
255 255 255
255 255 255
255 255 255
255 255 255
255 255 255
255 012 255
255 012 255
255 012 255
255 255 255
255 255 255
255 010 255
255 010 255
255 009 255
255 009 255
255 009 255
255 255 255
255 255 255
255 007 255
255 007 255
255 007 255
255 255 255
255 255 255
255 255 255
255 255 255
255 255 255
255 005 255
255 255 255
255 255 255
255 255 255
255 255 255
255 255 255
255 003 255
255 003 255
255 003 255
255 003 255
255 255 255
255 003 255
255 002 255
255 002 255
255 002 255
255 002 255
255 255 255
255 255 255
255 255 255
083 105 083
083 000 083
083 000 083
021 000 000
021 000 000
021 000 000
021 000 000
021 000 000
021 000 000
021 000 000
021 000 000
021 000 000
021 000 000
021 000 000
021 000 000
021 000 000
021 000 000
021 000 000
185 000 177
185 000 177
255 255 255
255 255 255
255 255 255
255 255 255
255 255 255
255 013 255
255 255 255
255 255 255
255 255 255
255 255 255
255 255 255
255 010 255
255 010 255
255 009 255
255 255 255
255 255 255
255 008 255
255 008 255
255 007 255
255 007 255
255 007 255
255 255 255
255 255 255
255 006 255
255 005 255
255 005 255
255 255 255
255 255 255
255 255 255
255 255 255
255 255 255
255 255 255
255 255 255
255 255 255
255 255 255
255 255 255
255 255 255
255 002 255
255 002 255
255 002 255
255 002 255
083 000 083
083 105 083
083 105 083
083 105 083
083 000 083
083 000 083
021 000 000
021 000 000
021 000 000
021 000 000
021 000 000
021 000 000
021 000 000
021 000 000
021 000 000
021 000 000
021 000 000
021 000 000
021 000 000
021 000 000
021 000 000
021 000 000
185 000 177
185 226 177
255 255 255
255 015 255
255 014 255
255 014 255
255 013 255
255 255 255
255 255 255
255 255 255
255 255 255
255 255 255
255 011 255
255 255 255
255 255 255
255 255 255
255 255 255
255 255 255
255 008 255
255 008 255
255 007 255
255 255 255
255 255 255
255 006 255
255 006 255
255 006 255
255 005 255
255 005 255
255 005 255
255 255 255
255 255 255
255 004 255
255 004 255
255 004 255
255 255 255
255 255 255
255 255 255
255 255 255
255 255 255
255 002 255
083 000 083
083 000 083
083 000 083
083 105 083
083 105 083
083 105 083
083 000 083
083 000 083
021 000 000
021 000 000
021 000 000
021 000 000
021 000 000
021 000 000
021 000 000
021 000 000
021 000 000
021 000 000
021 000 000
021 000 000
021 000 000
021 000 000
021 000 000
021 000 000
185 000 177
185 226 177
185 000 177
255 015 255
255 015 255
255 014 255
255 014 255
255 013 255
255 255 255
255 012 255
255 012 255
255 011 255
255 011 255
255 010 255
255 255 255
255 255 255
255 255 255
255 255 255
255 255 255
255 255 255
255 255 255
255 255 255
255 255 255
255 255 255
255 006 255
255 006 255
255 006 255
255 005 255
255 255 255
255 255 255
255 005 255
255 004 255
255 004 255
255 004 255
255 004 255
255 255 255
255 255 255
083 105 083
083 105 083
083 000 083
083 000 083
083 000 083
083 000 083
083 105 083
083 105 083
083 105 083
021 000 000
021 000 000
021 000 000
021 000 000
021 000 000
021 000 000
021 000 000
021 000 000
021 000 000
021 000 000
021 000 000
021 000 000
021 000 000
021 000 000
021 000 000
021 000 000
021 000 000
021 000 000
021 000 000
185 226 177
185 000 177
255 016 255
255 015 255
255 015 255
255 255 255
255 255 255
255 255 255
255 013 255
255 012 255
255 012 255
255 011 255
255 011 255
255 255 255
255 255 255
255 010 255
255 009 255
255 009 255
255 008 255
255 255 255
255 255 255
255 255 255
255 255 255
255 255 255
255 255 255
255 255 255
255 255 255
255 255 255
255 255 255
255 255 255
255 004 255
255 004 255
255 004 255
255 004 255
083 000 083
083 105 083
083 105 083
083 105 083
083 000 083
083 000 083
083 000 083
083 105 083
083 105 083
000 000 000
000 000 000
021 000 000
021 000 000
